<svg xmlns="http://www.w3.org/2000/svg" version="1.1" xmlns:xlink="http://www.w3.org/1999/xlink" width="500" height="500"><svg width="500" height="500" viewBox="0 0 500 500" fill="none" xmlns="http://www.w3.org/2000/svg">
<rect width="500" height="500" fill="#88A8BF"></rect>
<path d="M40.0195 249.228C39.3754 199.389 54.6729 157.909 85.912 124.791C117.473 91.35 155.636 74.9513 200.402 75.5944C245.167 74.9513 283.169 91.35 314.408 124.791C345.969 157.909 361.428 199.389 360.784 249.228C361.428 298.746 345.969 340.546 314.408 374.63C282.847 408.713 244.845 425.434 200.402 424.791C155.636 425.434 117.473 408.874 85.912 375.112C54.6729 341.029 39.3754 299.067 40.0195 249.228ZM345.325 249.228C345.969 204.855 331.96 166.913 303.297 135.401C274.957 103.89 240.658 88.4561 200.402 89.0992C160.145 88.4561 125.685 103.89 97.0228 135.401C68.6822 166.591 54.8339 204.533 55.478 249.228C54.8339 294.244 68.6822 332.829 97.0228 364.984C125.363 396.816 159.823 412.25 200.402 411.286C240.658 412.25 274.957 396.656 303.297 364.501C331.96 332.025 345.969 293.601 345.325 249.228Z" fill="#1A1A1A"></path>
<path d="M434.828 419.848V395.732H458.982V419.848H434.828Z" fill="#1A1A1A"></path>
<path d="M380.233 419.85L264.777 288.178L207.291 337.374V419.85H193.281V82.2295H207.291V265.992C207.291 285.927 204.553 301.844 199.078 313.741L206.324 320.976L364.291 183.516H385.547L275.405 279.014L399.073 419.85H380.233Z" fill="#1A1A1A"></path>
</svg><style>@media (prefers-color-scheme: light) { :root { filter: none; } }
@media (prefers-color-scheme: dark) { :root { filter: none; } }
</style></svg>