<svg width="30" height="30" viewBox="0 0 30 30" fill="none" version="1.1" id="svg186" xmlns="http://www.w3.org/2000/svg"><path style="color:#000;fill:#fff;-inkscape-stroke:none" d="M15 0C6.725 0 0 6.725 0 15s6.725 15 15 15 15-6.725 15-15S23.275 0 15 0Zm0 1.5c7.465 0 13.5 6.035 13.5 13.5S22.465 28.5 15 28.5 1.5 22.465 1.5 15 7.535 1.5 15 1.5Z" id="circle182"/><path d="M24.53 15.53a.75.75 0 0 0 0-1.06l-4.773-4.773a.75.75 0 0 0-1.06 1.06L22.939 15l-4.242 4.243a.75.75 0 0 0 1.06 1.06l4.773-4.773ZM6 15v.75h18v-1.5H6V15Z" fill="#fff" id="path184"/></svg>