<svg width="44" height="44" viewBox="0 0 44 44" fill="none" xmlns="http://www.w3.org/2000/svg"><path d="M29.435 19c-2.601 0-2.962 2.924-2.962 2.924H32S32.036 19 29.435 19Zm-12.538 2.924H12V27h4.654c.701-.02 2.016-.244 2.016-2.467 0-2.64-1.774-2.61-1.774-2.61Z" fill="#fff"/><path d="M21.5 1C10.18 1 1 10.18 1 21.5S10.18 42 21.5 42 42 32.82 42 21.5 32.82 1 21.5 1Zm4.32 12.593h7.056v2.105H25.82v-2.105Zm-3.57 11.055c0 5.217-5.436 5.052-5.436 5.052H7.92V12.586h8.895c2.71 0 4.842 1.492 4.842 4.558s-2.609 3.258-2.609 3.258c3.441 0 3.203 4.246 3.203 4.246Zm13.197-.284H26.58c0 3.176 3.011 2.975 3.011 2.975 2.846 0 2.746-1.84 2.746-1.84h3.01c0 4.887-5.856 4.549-5.856 4.549-7.02 0-6.571-6.544-6.571-6.544s-.01-6.57 6.57-6.57c6.928.008 5.958 7.43 5.958 7.43Z" fill="#fff"/><path d="M18 16.86C18 15 16.828 15 16.828 15H12v4h4.527c.78 0 1.473-.278 1.473-2.14Z" fill="#fff"/></svg>