<svg width="44" height="44" viewBox="0 0 44 44" fill="none" xmlns="http://www.w3.org/2000/svg"><path d="M25.5 22.076a4 4 0 1 1-3.9-4.075 4.05 4.05 0 0 1 3.9 4.075Z" fill="#fff"/><path d="M27.513 11H15.487a4.52 4.52 0 0 0-3.173 1.297A4.401 4.401 0 0 0 11 15.43v12.14a4.386 4.386 0 0 0 1.314 3.133 4.49 4.49 0 0 0 1.456.96 4.537 4.537 0 0 0 1.717.337h12.026c.59 0 1.173-.115 1.717-.337a4.491 4.491 0 0 0 1.456-.96c.416-.412.747-.9.972-1.438A4.38 4.38 0 0 0 32 27.57V15.452a4.386 4.386 0 0 0-.336-1.702 4.429 4.429 0 0 0-.972-1.444 4.492 4.492 0 0 0-1.457-.965A4.542 4.542 0 0 0 27.513 11ZM21.5 27.903a6.05 6.05 0 0 1-3.365-.932 5.937 5.937 0 0 1-2.267-2.626 5.846 5.846 0 0 1-.396-3.428 5.891 5.891 0 0 1 1.607-3.064 6.015 6.015 0 0 1 3.066-1.657 6.064 6.064 0 0 1 3.48.314 5.978 5.978 0 0 1 2.712 2.177 5.863 5.863 0 0 1 1.02 3.3 5.776 5.776 0 0 1-.424 2.244 5.836 5.836 0 0 1-1.262 1.913 5.922 5.922 0 0 1-1.908 1.29 5.984 5.984 0 0 1-2.263.469Zm6.509-11.83a1.113 1.113 0 0 1-.786-.325 1.083 1.083 0 0 1-.314-.782 1.1 1.1 0 0 1 .328-.783 1.129 1.129 0 0 1 1.587 0c.21.207.328.49.328.783a1.073 1.073 0 0 1-.36.834 1.102 1.102 0 0 1-.874.273h.09Z" fill="#fff"/><path d="M21.602 1a20.5 20.5 0 1 0-.205 41 20.5 20.5 0 0 0 .206-41Zm12.45 26.039a6.95 6.95 0 0 1-6.99 6.992H16.147a6.951 6.951 0 0 1-6.992-6.99V16.125a6.95 6.95 0 0 1 6.99-6.992h10.917a6.95 6.95 0 0 1 6.99 6.99v10.916Z" fill="#fff"/></svg>