<svg width="44" height="44" viewBox="0 0 44 44" fill="none" xmlns="http://www.w3.org/2000/svg"><g clip-path="url(#clip0_736_440)"><path d="M22.003.88C10.338.88.883 10.336.883 22c0 11.664 9.455 21.12 21.12 21.12 11.664 0 21.12-9.456 21.12-21.12 0-11.665-9.456-21.12-21.12-21.12Zm-5.17 29.874h-4.277V16.99h4.277v13.764ZM14.668 15.3c-1.35 0-2.224-.957-2.224-2.14 0-1.208.9-2.137 2.279-2.137 1.38 0 2.224.929 2.25 2.136 0 1.184-.87 2.14-2.305 2.14Zm17.785 15.453h-4.277v-7.628c0-1.775-.62-2.98-2.167-2.98-1.181 0-1.883.816-2.193 1.6-.115.28-.143.676-.143 1.07v7.936h-4.28V21.38a91.95 91.95 0 0 0-.112-4.392h3.716l.196 1.912h.086c.563-.897 1.942-2.222 4.25-2.222 2.814 0 4.924 1.886 4.924 5.938v8.138Z" fill="#fff"/></g><defs><clipPath id="clip0_736_440"><path fill="#fff" d="M0 0h44v44H0z"/></clipPath></defs></svg>