<svg width="44" height="44" viewBox="0 0 44 44" fill="none" xmlns="http://www.w3.org/2000/svg"><path d="M22 1C10.408 1 1 10.408 1 22s9.408 21 21 21 21-9.408 21-21S33.592 1 22 1Zm9.744 14.28c-.315 3.318-1.68 11.382-2.373 15.099-.294 1.575-.882 2.1-1.428 2.163-1.218.105-2.142-.798-3.318-1.575-1.848-1.218-2.898-1.974-4.683-3.15-2.079-1.365-.735-2.121.462-3.339.315-.315 5.691-5.208 5.796-5.649a.42.42 0 0 0-.105-.378c-.126-.105-.294-.063-.441-.042-.189.042-3.129 1.995-8.862 5.859-.84.567-1.596.861-2.268.84-.756-.021-2.184-.42-3.255-.777-1.323-.42-2.352-.651-2.268-1.386.042-.378.567-.756 1.554-1.155 6.132-2.667 10.206-4.431 12.243-5.271 5.838-2.436 7.035-2.856 7.833-2.856.168 0 .567.042.819.252.21.168.273.399.294.567-.021.126.021.504 0 .798Z" fill="#fff"/></svg>